<?xml version="1.0" encoding="iso-8859-1"?>
<!-- Generator: Adobe Illustrator 19.0.0, SVG Export Plug-In . SVG Version: 6.00 Build 0)  -->
<svg version="1.1" id="Capa_1" xmlns="http://www.w3.org/2000/svg" xmlns:xlink="http://www.w3.org/1999/xlink" x="0px" y="0px"
	 viewBox="0 0 482.536 482.536" style="enable-background:new 0 0 482.536 482.536;" xml:space="preserve">
<g>
	<g>
		<path d="M417.081,122.536v16h8v32h-16.8c-3.827-18.611-20.199-31.976-39.2-32h-28.688l-91.992-92
			c-4.383-28.342-30.913-47.764-59.255-43.381c-19.007,2.94-34.832,16.144-41.129,34.317l-0.592-0.592l-93.688,93.656
			c-0.224,0-0.432,0-0.656,0C24.363,130.742,1.25,154.19,1.456,182.908c0.182,25.345,18.61,46.866,43.625,50.948l76,76
			c0,0.224,0,0.432,0,0.656c-0.003,9.941,2.863,19.672,8.256,28.024h-0.256v44.688L99.425,412.88c-1.5,1.5-2.344,3.534-2.344,5.656
			v56c0,4.418,3.582,8,8,8h136c4.418,0,8-3.582,8-8v-56c0-2.122-0.844-4.156-2.344-5.656l-29.656-29.656v-44.688h-0.256
			c15.502-24.076,8.552-56.16-15.523-71.662c-6.127-3.945-13.017-6.555-20.221-7.658l-76-76c0-0.224,0-0.432,0-0.656
			s0-0.432,0-0.656l77.464-77.464c2.157,0.628,4.354,1.109,6.576,1.44l102.304,102.312c10.792,11.019,26.87,15.02,41.568,10.344
			h36.088c19.001-0.024,35.373-13.389,39.2-32h16.8v72c0,13.255,10.745,24,24,24s24-10.745,24-24v-120h8v-16H417.081z
			 M17.081,182.536c0.022-19.873,16.127-35.978,36-36c19.882,0,36,16.118,36,36s-16.118,36-36,36S17.081,202.418,17.081,182.536z
			 M233.081,466.536h-120v-16h120V466.536z M233.081,421.848v12.688h-120v-12.688l27.312-27.312h65.376L233.081,421.848z
			 M145.081,378.536V354.28c17.044,11.008,38.956,11.008,56,0v24.256H145.081z M209.081,310.536c0,19.882-16.118,36-36,36
			s-36-16.118-36-36s16.118-36,36-36C192.954,274.558,209.059,290.663,209.081,310.536z M159.601,260.368
			c-15.72,4.251-28.553,15.599-34.696,30.68l-12.512-12.512l32.688-32.688L159.601,260.368z M133.769,234.536l-32.688,32.688
			l-34.52-34.52c15.72-4.251,28.553-15.599,34.696-30.68L133.769,234.536z M101.257,163.048
			c-5.303-13.04-15.648-23.385-28.688-28.688l12.512-12.512l28.688,28.688L101.257,163.048z M125.081,139.224l-28.688-28.688
			l49.184-49.184c1.917,14.407,9.776,27.354,21.672,35.704L125.081,139.224z M161.081,54.536c0.022-19.873,16.127-35.978,36-36
			c19.882,0,36,16.118,36,36s-16.118,36-36,36S161.081,74.418,161.081,54.536z M210.561,104.704
			c17.88-4.841,31.847-18.808,36.688-36.688l14.52,14.52l-36.688,36.688L210.561,104.704z M236.393,130.536l36.688-36.688
			l36.688,36.688l-36.688,36.688L236.393,130.536z M339.009,196.88c-10.082,9.856-26.19,9.856-36.272,0l-18.344-18.344
			l36.688-36.688l18.344,18.344C349.441,170.438,349.255,186.864,339.009,196.88z M369.081,202.536h-13.696
			c10.186-14.379,10.186-33.621,0-48h13.696c13.255,0,24,10.745,24,24S382.336,202.536,369.081,202.536z M457.081,258.536
			c0,4.418-3.582,8-8,8s-8-3.582-8-8v-72h16V258.536z M457.081,170.536h-16v-32h16V170.536z"/>
	</g>
</g>
<g>
	<g>
		<path d="M97.081,310.536h-16c0.013,22.068,7.964,43.396,22.4,60.088l12.096-10.488C103.661,346.357,97.096,328.753,97.081,310.536
			z"/>
	</g>
</g>
<g>
	<g>
		<path d="M367.857,33.936l-15.896,1.912c0.746,6.201,1.12,12.442,1.12,18.688c0.035,20.538-4.019,40.878-11.928,59.832l14.76,6.16
			c8.729-20.904,13.206-43.338,13.168-65.992C369.078,47.651,368.67,40.773,367.857,33.936z"/>
	</g>
</g>
<g>
	<g>
		<path d="M360.281,0l-15.2,5.072c1.732,5.208,3.187,10.503,4.36,15.864l15.64-3.416C363.789,11.6,362.187,5.752,360.281,0z"/>
	</g>
</g>
<g>
	<g>
		<path d="M173.329,126.736l-5.016,15.2c9.283,3.056,18.995,4.609,28.768,4.6v-16C189.012,130.543,180.993,129.261,173.329,126.736z
			"/>
	</g>
</g>
<g>
	<g>
		<circle cx="173.081" cy="310.536" r="12"/>
	</g>
</g>
<g>
	<g>
		<circle cx="53.081" cy="182.536" r="12"/>
	</g>
</g>
<g>
	<g>
		<circle cx="197.081" cy="54.536" r="12"/>
	</g>
</g>
<g>
	<g>
		<rect x="313.081" y="170.536" width="16" height="16"/>
	</g>
</g>
<g>
	<g>
		<rect x="425.081" y="82.536" width="16" height="16"/>
	</g>
</g>
<g>
	<g>
		<rect x="457.081" y="66.536" width="16" height="16"/>
	</g>
</g>
<g>
	<g>
		<path d="M433.081,354.536v-16h8v-16h-64v16h8v16h-136v16h16v112h16v-112h104v88c0,13.255,10.745,24,24,24s24-10.745,24-24v-88h16
			v112h16v-112h16v-16H433.081z M417.081,458.536c0,4.418-3.582,8-8,8s-8-3.582-8-8v-88h16V458.536z M417.081,354.536h-16v-16h16
			V354.536z"/>
	</g>
</g>
<g>
</g>
<g>
</g>
<g>
</g>
<g>
</g>
<g>
</g>
<g>
</g>
<g>
</g>
<g>
</g>
<g>
</g>
<g>
</g>
<g>
</g>
<g>
</g>
<g>
</g>
<g>
</g>
<g>
</g>
</svg>
