<?xml version="1.0" encoding="iso-8859-1"?>
<!-- Generator: Adobe Illustrator 19.0.0, SVG Export Plug-In . SVG Version: 6.00 Build 0)  -->
<svg version="1.1" id="Capa_1" xmlns="http://www.w3.org/2000/svg" xmlns:xlink="http://www.w3.org/1999/xlink" x="0px" y="0px"
	 viewBox="0 0 512 512" style="enable-background:new 0 0 512 512;" xml:space="preserve">
<g>
	<g>
		<path d="M386.912,360.014H45.392c-12.529,0-23.877,5.074-32.093,13.289C5.084,381.519,0,392.867,0,405.396
			c0,25.068,20.324,45.392,45.392,45.392h341.52c12.529,0,23.877-5.084,32.093-13.299c8.216-8.216,13.289-19.564,13.289-32.093
			C432.294,380.328,411.98,360.014,386.912,360.014z M67.407,420.407c-8.296,0-15.011-6.715-15.011-15.011
			c0-8.286,6.715-15.011,15.011-15.011c8.286,0,15.011,6.725,15.011,15.011C82.418,413.692,75.693,420.407,67.407,420.407z
			 M126.949,420.407c-8.296,0-15.011-6.715-15.011-15.011c0-8.286,6.715-15.011,15.011-15.011c8.286,0,15.011,6.725,15.011,15.011
			C141.96,413.692,135.235,420.407,126.949,420.407z M186.491,420.407c-8.296,0-15.01-6.715-15.01-15.011
			c0-8.286,6.715-15.011,15.01-15.011c8.286,0,15.011,6.725,15.011,15.011C201.502,413.692,194.777,420.407,186.491,420.407z
			 M246.033,420.407c-8.296,0-15.011-6.715-15.011-15.011c0-8.286,6.715-15.011,15.011-15.011c8.286,0,15.011,6.725,15.011,15.011
			C261.044,413.692,254.319,420.407,246.033,420.407z M305.575,420.407c-8.296,0-15.011-6.715-15.011-15.011
			c0-8.286,6.715-15.011,15.011-15.011c8.286,0,15.011,6.725,15.011,15.011C320.585,413.692,313.861,420.407,305.575,420.407z
			 M365.117,420.407c-8.296,0-15.011-6.715-15.011-15.011c0-8.286,6.715-15.011,15.011-15.011c8.286,0,15.011,6.725,15.011,15.011
			C380.127,413.692,373.403,420.407,365.117,420.407z"/>
	</g>
</g>
<g>
	<g>
		<path d="M512,91.233V61.212c-25.241,0-46.369,17.925-51.335,41.713h-53.188l-76.742,119.502h-63.267
			c-4.311-43.067-37.432-77.767-79.751-84.495v-32.387h-30.021v32.387c-42.32,6.729-75.442,41.429-79.752,84.495H30.381
			l0.003,106.775h358.819V222.427h-22.791l57.464-89.481h39.374c7.703,19.395,26.644,33.149,48.749,33.149v-30.021
			c-12.364,0-22.421-10.058-22.421-22.42C489.579,101.291,499.636,91.233,512,91.233z M136.006,303.354H75.143v-30.021h60.863
			V303.354z"/>
	</g>
</g>
<g>
</g>
<g>
</g>
<g>
</g>
<g>
</g>
<g>
</g>
<g>
</g>
<g>
</g>
<g>
</g>
<g>
</g>
<g>
</g>
<g>
</g>
<g>
</g>
<g>
</g>
<g>
</g>
<g>
</g>
</svg>
