<?xml version="1.0" encoding="iso-8859-1"?>
<!-- Generator: Adobe Illustrator 19.0.0, SVG Export Plug-In . SVG Version: 6.00 Build 0)  -->
<svg version="1.1" id="Capa_1" xmlns="http://www.w3.org/2000/svg" xmlns:xlink="http://www.w3.org/1999/xlink" x="0px" y="0px"
	 viewBox="0 0 512 512" style="enable-background:new 0 0 512 512;" xml:space="preserve">
<g>
	<g>
		<circle cx="82.36" cy="390.29" r="15"/>
	</g>
</g>
<g>
	<g>
		<circle cx="141.86" cy="390.29" r="15"/>
	</g>
</g>
<g>
	<g>
		<circle cx="201.36" cy="390.29" r="15"/>
	</g>
</g>
<g>
	<g>
		<circle cx="260.86" cy="390.29" r="15"/>
	</g>
</g>
<g>
	<g>
		<circle cx="320.36" cy="390.29" r="15"/>
	</g>
</g>
<g>
	<g>
		<circle cx="379.86" cy="390.29" r="15"/>
	</g>
</g>
<g>
	<g>
		<rect x="108.32" y="276.19" width="60.814" height="30"/>
	</g>
</g>
<g>
	<g>
		<path d="M512,91.349v-30c-25.223,0-46.336,17.912-51.299,41.684H407.55l-76.687,119.416h-63.225
			c-4.309-43.036-37.406-77.71-79.695-84.434v-32.364h-30v32.364c-42.289,6.724-75.387,41.399-79.696,84.434H45.356v109.378
			C19.309,338.513,0,362.191,0,390.294c0,33.28,27.076,60.357,60.356,60.357h341.278c33.28,0,60.356-27.076,60.356-60.357
			c0-32.511-25.842-59.086-58.062-60.298V222.449h-37.414l57.423-89.416h39.346c7.698,19.381,26.625,33.126,48.715,33.126v-30
			c-12.354,0-22.405-10.051-22.405-22.404C489.595,101.4,499.646,91.349,512,91.349z M172.943,166.829
			c32.691,0,59.83,24.197,64.466,55.62H108.476C113.113,191.025,140.252,166.829,172.943,166.829z M431.991,390.294
			c0,16.738-13.618,30.357-30.356,30.357H60.356C43.618,420.651,30,407.033,30,390.294c0-16.738,13.618-30.356,30.356-30.356
			h341.278C418.373,359.938,431.991,373.556,431.991,390.294z M373.93,252.449v77.489H75.356v-77.489H373.93z"/>
	</g>
</g>
<g>
</g>
<g>
</g>
<g>
</g>
<g>
</g>
<g>
</g>
<g>
</g>
<g>
</g>
<g>
</g>
<g>
</g>
<g>
</g>
<g>
</g>
<g>
</g>
<g>
</g>
<g>
</g>
<g>
</g>
</svg>
